<?xml version="1.0" standalone="no"?>
<!DOCTYPE svg PUBLIC "-//W3C//DTD SVG 20010904//EN"
 "http://www.w3.org/TR/2001/REC-SVG-20010904/DTD/svg10.dtd">
<svg version="1.0" xmlns="http://www.w3.org/2000/svg"
 width="920.000000pt" height="920.000000pt" viewBox="0 0 920.000000 920.000000"
 preserveAspectRatio="xMidYMid meet">

<g transform="translate(0.000000,920.000000) scale(0.100000,-0.100000)"
fill="#000000" stroke="none">
<path d="M6225 8412 c-67 -6 -232 -35 -303 -53 -382 -101 -730 -324 -957 -614
-194 -249 -297 -483 -350 -795 -11 -64 -14 -334 -4 -410 54 -437 208 -754 684
-1410 531 -732 760 -1170 899 -1726 26 -102 69 -340 82 -447 7 -60 13 -70 70
-113 l33 -26 35 21 c53 33 74 92 91 256 18 170 91 462 164 656 168 446 372
795 877 1504 375 526 545 882 594 1250 19 137 9 405 -19 535 -115 525 -442
943 -929 1185 -250 124 -500 185 -781 188 -86 1 -169 1 -186 -1z"/>
<path d="M3094 6608 l-19 -23 23 19 c12 11 22 21 22 23 0 8 -8 2 -26 -19z"/>
<path d="M2935 2420 l-1260 -1260 2525 0 2525 0 -1260 1260 c-693 693 -1262
1260 -1265 1260 -3 0 -572 -567 -1265 -1260z"/>
</g>
</svg>
